:FULLY-SPECIFIED
:FORCE-ALL-JOINTS-BE-3DOF
:DEGREES
714
root -11.6096 13.9336 -38.3047 151.891 -61.2341 -147.303
lfemur -64.5282 24.8778 -0.590876
ltibia 75.2548 -0 0
lfoot -8.24268 -7.74553 -5.85497e-05
ltoes -3.65118 0 0
rfemur 8.79862 -10.1598 11.8326
rtibia 41.4278 -0 0
rfoot -25.0878 -27.529 -0.000599751
rtoes -25.9037 0 0
lowerback 12.2311 1.42477 8.88741
upperback -1.7203 3.46843 5.73317
thorax -8.59804 1.27828 0.511018
lowerneck -4.58869 4.83257 0.604056
upperneck 4.05708 6.34106 1.29985
head 2.02901 3.2021 0.505944
lclavicle 3.05134e-14 -2.96189e-14 0
lhumerus 62.502 15.8294 107.33
lradius 11.8527 -0 0
lwrist -77.7322 0 0
lhand -33.4276 36.1599 -0.00453758
lfingers 7.12502 -0 0
lthumb -6.62697 66.0354 -0.00428998
rclavicle 3.05134e-14 -2.96189e-14 0
rhumerus -75.4418 19.0743 -95.5888
rradius 114.787 -0 0
rwrist -66.0689 0 0
rhand -8.5278 -40.2567 0.345489
rfingers 7.12502 -0 0
rthumb 17.3916 -69.3841 0.364184
715
root -11.6195 13.93 -38.3082 151.904 -61.2662 -147.261
lfemur -64.6289 24.8994 -0.632101
ltibia 75.3479 -0 0
lfoot -8.29416 -7.7452 -5.97207e-05
ltoes -3.68288 0 0
rfemur 8.84192 -10.1783 11.8263
rtibia 41.3458 -0 0
rfoot -25.0711 -27.5392 -0.000611746
rtoes -26.1139 0 0
lowerback 12.2068 1.42229 8.89119
upperback -1.72197 3.4626 5.73624
thorax -8.58615 1.2757 0.513908
lowerneck -4.55178 4.83892 0.636887
upperneck 4.03815 6.34975 1.26335
head 2.01853 3.20588 0.487927
lclavicle 3.05134e-14 -2.96189e-14 0
lhumerus 62.5126 15.7948 107.253
lradius 11.8581 -0 0
lwrist -77.7333 0 0
lhand -33.3975 36.1167 -0.00462834
lfingers 7.12502 -0 0
lthumb -6.59793 65.9931 -0.00437578
rclavicle 3.05134e-14 -2.96189e-14 0
rhumerus -75.4449 19.0712 -95.6069
rradius 114.706 -0 0
rwrist -65.8734 0 0
rhand -8.20968 -39.945 0.352413
rfingers 7.12502 -0 0
rthumb 17.6977 -69.0425 0.371484
716
root -11.6293 13.9264 -38.3117 151.917 -61.2982 -147.22
lfemur -64.7297 24.9209 -0.673374
ltibia 75.4411 -0 0
lfoot -8.34563 -7.74487 -6.0599e-05
ltoes -3.71457 0 0
rfemur 8.88523 -10.1968 11.8199
rtibia 41.2638 -0 0
rfoot -25.0543 -27.5495 -0.000620742
rtoes -26.324 0 0
lowerback 12.1826 1.41981 8.89498
upperback -1.72365 3.45677 5.73931
thorax -8.57427 1.27313 0.516798
lowerneck -4.51486 4.84524 0.669722
upperneck 4.01921 6.35843 1.22684
head 2.00804 3.20966 0.46991
lclavicle 3.05134e-14 -2.96189e-14 0
lhumerus 62.5232 15.7602 107.177
lradius 11.8635 -0 0
lwrist -77.7344 0 0
lhand -33.3674 36.0735 -0.0046964
lfingers 7.12502 -0 0
lthumb -6.56889 65.9508 -0.00444013
rclavicle 3.05134e-14 -2.96189e-14 0
rhumerus -75.4481 19.068 -95.6249
rradius 114.625 -0 0
rwrist -65.6779 0 0
rhand -7.89152 -39.6333 0.357607
rfingers 7.12502 -0 0
rthumb 18.0037 -68.7009 0.376959
717
root -11.6392 13.9228 -38.3152 151.93 -61.3302 -147.179
lfemur -64.8305 24.9424 -0.714697
ltibia 75.5342 -0 0
lfoot -8.3971 -7.74455 -6.11845e-05
ltoes -3.74627 0 0
rfemur 8.92854 -10.2152 11.8136
rtibia 41.1818 -0 0
rfoot -25.0376 -27.5598 -0.00062674
rtoes -26.5342 0 0
lowerback 12.1583 1.41733 8.89876
upperback -1.72532 3.45093 5.74238
thorax -8.56238 1.27056 0.519688
lowerneck -4.47794 4.85154 0.702561
upperneck 4.00027 6.3671 1.19033
head 1.99755 3.21343 0.451891
lclavicle 3.05134e-14 -2.96189e-14 0
lhumerus 62.5339 15.7257 107.1
lradius 11.8689 -0 0
lwrist -77.7354 0 0
lhand -33.3373 36.0303 -0.00474178
lfingers 7.12502 -0 0
lthumb -6.53986 65.9084 -0.00448303
rclavicle 3.05134e-14 -2.96189e-14 0
rhumerus -75.4512 19.0649 -95.643
rradius 114.544 -0 0
rwrist -65.4825 0 0
rhand -7.57334 -39.3216 0.361069
rfingers 7.12502 -0 0
rthumb 18.3098 -68.3593 0.380609
718
root -11.649 13.9192 -38.3187 151.943 -61.3623 -147.138
lfemur -64.9314 24.9639 -0.756069
ltibia 75.6273 -0 0
lfoot -8.44858 -7.74422 -6.14773e-05
ltoes -3.77796 0 0
rfemur 8.97186 -10.2337 11.8072
rtibia 41.0998 -0 0
rfoot -25.0209 -27.57 -0.000629739
rtoes -26.7443 0 0
lowerback 12.1341 1.41485 8.90255
upperback -1.72699 3.4451 5.74544
thorax -8.5505 1.26799 0.522577
lowerneck -4.44102 4.85782 0.735405
upperneck 3.98133 6.37575 1.15382
head 1.98707 3.2172 0.433872
lclavicle 3.05134e-14 -2.96189e-14 0
lhumerus 62.5447 15.6911 107.024
lradius 11.8743 -0 0
lwrist -77.7365 0 0
lhand -33.3072 35.9871 -0.00476447
lfingers 7.12502 -0 0
lthumb -6.51082 65.8661 -0.00450448
rclavicle 3.05134e-14 -2.96189e-14 0
rhumerus -75.4543 19.0618 -95.6611
rradius 114.463 -0 0
rwrist -65.287 0 0
rhand -7.25514 -39.0098 0.3628
rfingers 7.12502 -0 0
rthumb 18.6159 -68.0177 0.382434
719
root -11.6589 13.9155 -38.3221 151.956 -61.3943 -147.097
lfemur -65.0322 24.9852 -0.797489
ltibia 75.7204 -0 0
lfoot -8.50005 -7.7439 -6.14773e-05
ltoes -3.80966 0 0
rfemur 9.01518 -10.2521 11.8009
rtibia 41.0178 -0 0
rfoot -25.0041 -27.5803 -0.000629739
rtoes -26.9545 0 0
lowerback 12.1098 1.41238 8.90633
upperback -1.72867 3.43927 5.74851
thorax -8.53861 1.26541 0.525465
lowerneck -4.40409 4.86407 0.768253
upperneck 3.96238 6.3844 1.1173
head 1.97658 3.22097 0.415852
lclavicle 3.05134e-14 -2.96189e-14 0
lhumerus 62.5555 15.6566 106.947
lradius 11.8798 -0 0
lwrist -77.7376 0 0
lhand -33.2772 35.9438 -0.00476447
lfingers 7.12502 -0 0
lthumb -6.48178 65.8238 -0.00450448
rclavicle 3.05134e-14 -2.96189e-14 0
rhumerus -75.4574 19.0587 -95.6791
rradius 114.382 -0 0
rwrist -65.0915 0 0
rhand -6.93694 -38.6981 0.3628
rfingers 7.12502 -0 0
rthumb 18.922 -67.676 0.382434
720
root -11.6687 13.9119 -38.3256 151.969 -61.4264 -147.055
lfemur -65.1332 25.0065 -0.838958
ltibia 75.8135 -0 0
lfoot -8.55153 -7.74357 -6.11845e-05
ltoes -3.84135 0 0
rfemur 9.05851 -10.2706 11.7945
rtibia 40.9358 -0 0
rfoot -24.9874 -27.5905 -0.00062674
rtoes -27.1646 0 0
lowerback 12.0855 1.4099 8.91012
upperback -1.73034 3.43344 5.75158
thorax -8.52673 1.26284 0.528353
lowerneck -4.36716 4.87031 0.801105
upperneck 3.94342 6.39303 1.08078
head 1.96609 3.22473 0.397831
lclavicle 3.05134e-14 -2.96189e-14 0
lhumerus 62.5663 15.6221 106.871
lradius 11.8852 -0 0
lwrist -77.7387 0 0
lhand -33.2471 35.9006 -0.00474178
lfingers 7.12502 -0 0
lthumb -6.45274 65.7815 -0.00448303
rclavicle 3.05134e-14 -2.96189e-14 0
rhumerus -75.4605 19.0556 -95.6972
rradius 114.301 -0 0
rwrist -64.896 0 0
rhand -6.61875 -38.3863 0.361069
rfingers 7.12502 -0 0
rthumb 19.2281 -67.3344 0.380609
721
root -11.6786 13.9083 -38.3291 151.982 -61.4584 -147.014
lfemur -65.2341 25.0277 -0.880475
ltibia 75.9066 -0 0
lfoot -8.603 -7.74325 -6.0599e-05
ltoes -3.87305 0 0
rfemur 9.10184 -10.289 11.7881
rtibia 40.8538 -0 0
rfoot -24.9707 -27.6008 -0.000620742
rtoes -27.3748 0 0
lowerback 12.0613 1.40743 8.91391
upperback -1.73202 3.42761 5.75465
thorax -8.51484 1.26027 0.531241
lowerneck -4.33022 4.87653 0.833962
upperneck 3.92445 6.40165 1.04425
head 1.9556 3.2285 0.379809
lclavicle 3.05134e-14 -2.96189e-14 0
lhumerus 62.5772 15.5876 106.795
lradius 11.8906 -0 0
lwrist -77.7397 0 0
lhand -33.217 35.8574 -0.0046964
lfingers 7.12502 -0 0
lthumb -6.42371 65.7391 -0.00444013
rclavicle 3.05134e-14 -2.96189e-14 0
rhumerus -75.4636 19.0524 -95.7153
rradius 114.22 -0 0
rwrist -64.7006 0 0
rhand -6.30057 -38.0746 0.357607
rfingers 7.12502 -0 0
rthumb 19.5342 -66.9928 0.376959
722
root -11.6884 13.9047 -38.3326 151.994 -61.4905 -146.973
lfemur -65.3351 25.0489 -0.922041
ltibia 75.9998 -0 0
lfoot -8.65447 -7.74292 -5.97207e-05
ltoes -3.90474 0 0
rfemur 9.14518 -10.3075 11.7817
rtibia 40.7718 -0 0
rfoot -24.9539 -27.6111 -0.000611746
rtoes -27.5849 0 0
lowerback 12.037 1.40496 8.9177
upperback -1.73369 3.42178 5.75772
thorax -8.50296 1.25769 0.534128
lowerneck -4.29328 4.88272 0.866823
upperneck 3.90548 6.41025 1.00772
head 1.9451 3.23225 0.361787
lclavicle 3.05134e-14 -2.96189e-14 0
lhumerus 62.5881 15.5531 106.718
lradius 11.896 -0 0
lwrist -77.7408 0 0
lhand -33.1869 35.8142 -0.00462834
lfingers 7.12502 -0 0
lthumb -6.39467 65.6968 -0.00437578
rclavicle 3.05134e-14 -2.96189e-14 0
rhumerus -75.4667 19.0493 -95.7333
rradius 114.139 -0 0
rwrist -64.5051 0 0
rhand -5.98241 -37.7629 0.352413
rfingers 7.12502 -0 0
rthumb 19.8402 -66.6512 0.371484
